# xmcd
#
# Track frame offsets:
# 150
# 12870
# 25382
# 37940
# 47895
# 60115
# 71070
# 81395
# 91865
# 103575
# 114807
# 126835
#
# Disc length: 1826 seconds
#
#
# Revision: 0
# Processed by: cddbd v1.5.1PL0 Copyright (c) Steve Scherf et al.
# Submitted via: FreeRIP 2.70 
#
DISCID=8f07200c
DTITLE=Snow, Hank - 36 All-Time Greatest Hits
DYEAR=2002
DGENRE=Country
TTITLE0=I'm Moving On
TTITLE1=The Golden Rocket
TTITLE2=The Rhumba Boogie
TTITLE3=Down The Trail Of Achin' Hearts
TTITLE4=Bluebird Island
TTITLE5=Music Makin' Mama From Memphis
TTITLE6=The Gold Rush Is Over
TTITLE7=Lady's Man
TTITLE8=I Went To Your Wedding
TTITLE9=(Now And Then, There's) A Fool Such As I
TTITLE10=The Gal Who Invented Kissin'
TTITLE11=Spanish Fire Ball
EXTD=Entered By Itaot...
EXTT0=
EXTT1=
EXTT2=
EXTT3=
EXTT4=
EXTT5=
EXTT6=
EXTT7=
EXTT8=
EXTT9=
EXTT10=
EXTT11=
PLAYORDER=
